<?xml version="1.0" encoding="UTF-8"?>
<svg version="1.1" xmlns="http://www.w3.org/2000/svg" width="207" height="177">
<path d="M0 0 C11.95589752 10.35578492 20.88521188 23.25695607 22.16015625 39.4375 C23.0368633 55.2016853 18.91837899 69.59038432 8.45703125 81.64453125 C7.7815625 82.38058594 7.10609375 83.11664063 6.41015625 83.875 C5.8171875 84.55949219 5.22421875 85.24398437 4.61328125 85.94921875 C-11.0420153 102.97602633 -36.15871564 111.43373223 -58.71142578 112.83007812 C-62.07785933 112.88261619 -65.38328524 112.68395317 -68.7421875 112.453125 C-84.45843491 111.38212874 -94.92265108 111.67460631 -108.55078125 119.75195312 C-113.84842682 122.66971769 -119.81052816 124.20012389 -125.58984375 125.875 C-126.60175781 126.17019531 -127.61367187 126.46539062 -128.65625 126.76953125 C-141.8701557 130.34133266 -154.98829273 131.19671868 -168.58984375 130.875 C-165.94274122 128.09554235 -163.30036965 125.85003578 -160.08984375 123.75 C-159.33703125 123.25242188 -158.58421875 122.75484375 -157.80859375 122.2421875 C-155.77915074 120.99165043 -153.73981213 119.90112127 -151.58984375 118.875 C-151.58984375 118.215 -151.58984375 117.555 -151.58984375 116.875 C-150.07390625 115.6684375 -150.07390625 115.6684375 -148.52734375 114.4375 C-141.56816108 108.68061515 -136.70879871 100.26902833 -135.15234375 91.375 C-135.93641457 86.89459531 -139.40013016 84.01319056 -142.57421875 80.9765625 C-152.51700172 70.60986243 -155.67682928 56.80718214 -155.58984375 42.875 C-154.95298696 28.7803536 -148.89338879 13.72850514 -138.58984375 3.875 C-137.92984375 3.875 -137.26984375 3.875 -136.58984375 3.875 C-136.09484375 2.39 -136.09484375 2.39 -135.58984375 0.875 C-97.0559123 -31.1081631 -38.8000537 -31.83594149 0 0 Z M-116.58984375 38.875 C-119.17593758 42.35006359 -119.84330664 45.12858777 -119.71484375 49.375 C-119.00772828 53.82832296 -117.28984844 56.12530456 -113.6875 58.7734375 C-110.04954939 60.68386967 -106.67608783 61.33647019 -102.58984375 60.875 C-99.18438148 59.27211048 -99.18438148 59.27211048 -96.58984375 56.875 C-96.05746094 56.42382812 -95.52507812 55.97265625 -94.9765625 55.5078125 C-92.4284157 52.50745937 -92.56315086 48.68540943 -92.58984375 44.875 C-93.37847896 41.92838594 -93.37847896 41.92838594 -94.58984375 39.875 C-95.24984375 39.875 -95.90984375 39.875 -96.58984375 39.875 C-96.91984375 38.885 -97.24984375 37.895 -97.58984375 36.875 C-104.21447024 33.17300284 -110.90366978 34.17071689 -116.58984375 38.875 Z M-77.23046875 40.70703125 C-79.621516 44.52033936 -79.21745361 48.53109358 -78.58984375 52.875 C-76.18086875 57.22968558 -73.20233304 59.12225407 -68.58984375 60.875 C-64.63630531 61.45155769 -62.95830582 61.07006815 -59.40234375 59.1875 C-55.92902927 56.33166365 -53.90813932 54.30200369 -53.30859375 49.73046875 C-53.11999852 44.99201368 -53.40289054 41.6114279 -56.58984375 37.875 C-60.05162134 35.00667 -63.09459079 34.3411079 -67.59765625 34.51953125 C-71.71653913 35.25446918 -74.50918258 37.66826169 -77.23046875 40.70703125 Z M-36.90234375 40 C-39.26194428 44.02006017 -39.37700354 47.32071838 -38.58984375 51.875 C-36.22174988 56.79334882 -33.71685261 59.02927681 -28.58984375 60.875 C-24.59914444 61.45697698 -22.9658335 61.08142575 -19.40234375 59.125 C-16.04568675 56.4396744 -13.87367177 54.59075316 -13.15625 50.25390625 C-13.12769089 44.28676826 -13.12769089 44.28676826 -15.27734375 38.8125 C-18.87299381 35.79992833 -21.42031461 34.97942225 -26.08984375 34.5625 C-31.04668124 35.00507478 -33.30675214 36.69594285 -36.90234375 40 Z " fill="#165869" transform="translate(177.58984375,36.125)"/>
<path d="M0 0 C0 3.51716303 -0.82445585 4.37121748 -3 7 C-2.34 7.66 -1.68 8.32 -1 9 C-1.66 9 -2.32 9 -3 9 C-2.67 9.99 -2.34 10.98 -2 12 C-2.99 12.99 -3.98 13.98 -5 15 C-4.401875 14.649375 -3.80375 14.29875 -3.1875 13.9375 C-1 13 -1 13 2 14 C2 13.34 2 12.68 2 12 C2.85271484 12.03480469 2.85271484 12.03480469 3.72265625 12.0703125 C8.9181708 12.19174356 12.98618635 11.48557442 18 10 C20.33215844 9.92596322 22.66860788 9.90484114 25 10 C12.57349533 18.28433645 -6.52781203 17.34231194 -21 17 C-18.35289747 14.22054235 -15.7105259 11.97503578 -12.5 9.875 C-11.7471875 9.37742188 -10.994375 8.87984375 -10.21875 8.3671875 C-8.18930699 7.11665043 -6.14996838 6.02612127 -4 5 C-4 4.34 -4 3.68 -4 3 C-2 1.375 -2 1.375 0 0 Z " fill="#1C5460" transform="translate(30,150)"/>
<path d="M0 0 C0.66 0.33 1.32 0.66 2 1 C3.35865903 1.04413319 4.71931675 1.0353648 6.078125 0.99609375 C10.7223355 0.94319207 15.15593741 1.44003944 19.75 2.0625 C27.36736659 3.01566536 34.36149289 2.99867407 42 2 C42.495 2.99 42.495 2.99 43 4 C37.28800582 4.8633155 31.89168359 5.02040588 26.12890625 4.5625 C10.77643276 3.3709768 -0.40739161 3.69780993 -13.87695312 11.89257812 C-17.70172072 13.88765009 -21.83862889 14.92699592 -26 16 C-26.33 15.34 -26.66 14.68 -27 14 C-25.9275 13.608125 -24.855 13.21625 -23.75 12.8125 C-20.08014589 11.43221619 -16.44136048 9.98473772 -12.8125 8.5 C-11.82894531 8.0978125 -10.84539062 7.695625 -9.83203125 7.28125 C-5.54879948 5.34345687 -2.64054128 3.96081191 0 0 Z " fill="#184B58" transform="translate(83,144)"/>
<path d="M0 0 C0.66 0 1.32 0 2 0 C6.16118005 5.58787035 6.16118005 5.58787035 5.73828125 9.29296875 C3.85424325 15.24413641 1.47557138 19.68940338 -4.1875 22.6875 C-5.5796875 23.3371875 -5.5796875 23.3371875 -7 24 C-7.33 24.66 -7.66 25.32 -8 26 C-14.07478638 24.61998171 -19.24079709 22.51579031 -23 17.375 C-25 14 -25 14 -25 12 C-24.34 12 -23.68 12 -23 12 C-22.319375 13.1446875 -22.319375 13.1446875 -21.625 14.3125 C-19.51240153 17.80641286 -17.96204973 19.47953261 -13.953125 20.54296875 C-9.73267348 21.25817949 -7.56174751 21.27047102 -3.625 19.375 C-0.88760481 16.89830912 0.69511471 15.45410811 2 12 C1.97777527 7.79952613 1.3263881 3.9791643 0 0 Z " fill="#184F5A" transform="translate(82,75)"/>
<path d="M0 0 C0.66 0.33 1.32 0.66 2 1 C-8.07121531 12.27016952 -23.83557479 21.9902569 -39 24 C-37.56193978 21.12387956 -35.81658786 21.07197082 -32.8125 20.0625 C-28.68980611 18.61929184 -24.84606841 17.09025457 -21 15 C-19.86691406 14.39285156 -19.86691406 14.39285156 -18.7109375 13.7734375 C-14.04768119 11.31317606 -14.04768119 11.31317606 -10 8 C-7.875 7.375 -7.875 7.375 -6 7 C-6 6.34 -6 5.68 -6 5 C-5.34 5 -4.68 5 -4 5 C-4 4.34 -4 3.68 -4 3 C-2 1.375 -2 1.375 0 0 Z " fill="#1C4D58" transform="translate(181,120)"/>
<path d="M0 0 C0.66 0 1.32 0 2 0 C3.75780927 11.88696764 3.75780927 11.88696764 1 15.9375 C-0.485 16.9584375 -0.485 16.9584375 -2 18 C-3.16988539 19.1007558 -4.3364317 20.20506876 -5.5 21.3125 C-7.91435837 23.37817642 -8.69648856 23.96125386 -11.9375 24.375 C-12.618125 24.25125 -13.29875 24.1275 -14 24 C-14 23.34 -14 22.68 -14 22 C-15.79526111 20.71050833 -15.79526111 20.71050833 -18 19.5 C-20.25 18.21875 -20.25 18.21875 -22 17 C-22 16.34 -22 15.68 -22 15 C-22.66 14.67 -23.32 14.34 -24 14 C-22.68 14.33 -21.36 14.66 -20 15 C-20 15.66 -20 16.32 -20 17 C-15.83577505 18.58637141 -12.45695319 19.55711915 -8 19 C-4.03557141 16.86530768 -1.59323028 15.22876075 0 11 C0.24073194 8.17914272 0.24073194 8.17914272 0.125 5.25 C0.09792969 3.77273437 0.09792969 3.77273437 0.0703125 2.265625 C0.04710938 1.51796875 0.02390625 0.7703125 0 0 Z " fill="#184752" transform="translate(123,77)"/>
<path d="M0 0 C0.33 0.99 0.66 1.98 1 3 C0.34 3 -0.32 3 -1 3 C-2.2236068 5.0745356 -2.2236068 5.0745356 -2 8 C-2.66 7.67 -3.32 7.34 -4 7 C-4.33 7.99 -4.66 8.98 -5 10 C-6.98 10.33 -8.96 10.66 -11 11 C-11.33 10.01 -11.66 9.02 -12 8 C-11.34 8 -10.68 8 -10 8 C-11.37485532 6.45833358 -11.37485532 6.45833358 -13 5 C-13.66 5 -14.32 5 -15 5 C-15 4.34 -15 3.68 -15 3 C-15.66 3 -16.32 3 -17 3 C-17 2.34 -17 1.68 -17 1 C-16.13375 1.33 -15.2675 1.66 -14.375 2 C-9.65369215 3.39890603 -6.56131204 3.81459759 -2.125 1.5 C-1.42375 1.005 -0.7225 0.51 0 0 Z " fill="#18505E" transform="translate(160,93)"/>
<path d="M0 0 C0 0.33 0 0.66 0 1 C-0.60328125 1.15855469 -1.2065625 1.31710938 -1.828125 1.48046875 C-5.63571092 2.59203819 -8.48163109 3.5701331 -11.5625 6.125 C-13.57869953 10.15739907 -13.67557641 13.57380974 -13 18 C-11.65253476 21.45346148 -11.65253476 21.45346148 -10 24 C-10.66 24.33 -11.32 24.66 -12 25 C-16.35612483 18.46581276 -16.63496771 14.6261933 -15.5625 6.8125 C-12.32398913 0.98318043 -6.41669368 -1.82847378 0 0 Z " fill="#184B55" transform="translate(153,70)"/>
<path d="M0 0 C11.05929942 -0.93678772 22.07121756 2.24167785 32 7 C32.495 7.99 32.495 7.99 33 9 C27.96175545 8.71481635 24.39268407 7.8380742 19.875 5.5625 C13.47212142 2.44661253 7.02838638 1.68744801 0 1 C0 0.67 0 0.34 0 0 Z " fill="#194952" transform="translate(120,14)"/>
<path d="M0 0 C2.18049925 4.36099849 0.0245484 10.43386361 -1 15 C-2.45542106 19.1070163 -4.14043618 23.06084762 -6 27 C-6.99 27 -7.98 27 -9 27 C-8.525625 26.360625 -8.05125 25.72125 -7.5625 25.0625 C-5.76421864 21.53786854 -5.52167951 18.79074018 -5.30859375 14.890625 C-5.20675781 14.26671875 -5.10492188 13.6428125 -5 13 C-4.34 12.67 -3.68 12.34 -3 12 C-2.34625258 9.45293768 -2.34625258 9.45293768 -1.9375 6.5 C-1.09465649 1.09465649 -1.09465649 1.09465649 0 0 Z " fill="#1C4D59" transform="translate(199,81)"/>
<path d="M0 0 C2 2 2 2 2.1875 5.4375 C2 9 2 9 1 12 C0.34 12 -0.32 12 -1 12 C-1.26941406 12.72703125 -1.53882813 13.4540625 -1.81640625 14.203125 C-2.97635056 16.94411552 -4.30131027 19.26865374 -5.9375 21.75 C-6.44152344 22.52859375 -6.94554687 23.3071875 -7.46484375 24.109375 C-9 26 -9 26 -12 27 C-12 25 -12 25 -10.19921875 23.19921875 C-9.47347656 22.47347656 -8.74773438 21.74773437 -8 21 C-3.5886151 14.43974377 -1.38093704 8.87269886 -1 1 C-0.67 0.67 -0.34 0.34 0 0 Z " fill="#1A4A57" transform="translate(43,123)"/>
<path d="M0 0 C0.66 0 1.32 0 2 0 C6.16118005 5.58787035 6.16118005 5.58787035 5.73828125 9.29296875 C4.30552446 13.81866083 2.49531702 17.70441538 -1 21 C-4.25 22.3125 -4.25 22.3125 -7 23 C-7 22.34 -7 21.68 -7 21 C-5.6078125 20.1028125 -5.6078125 20.1028125 -4.1875 19.1875 C-0.83357552 16.88578712 0.57278219 15.7779295 2 12 C1.97777527 7.79952613 1.3263881 3.9791643 0 0 Z " fill="#1B4853" transform="translate(82,75)"/>
<path d="M0 0 C0.33 0.66 0.66 1.32 1 2 C0.525625 2.7425 0.05125 3.485 -0.4375 4.25 C-2.24858213 7.43750454 -2.25153693 9.39463735 -2 13 C-2.969375 13.268125 -3.93875 13.53625 -4.9375 13.8125 C-5.948125 14.204375 -6.95875 14.59625 -8 15 C-8.33 15.99 -8.66 16.98 -9 18 C-9.66 18 -10.32 18 -11 18 C-9.66629344 13.11951338 -7.47529792 9.54881455 -4.375 5.625 C-3.74464844 4.80708984 -3.74464844 4.80708984 -3.1015625 3.97265625 C-2.07499307 2.64278222 -1.03850813 1.32057207 0 0 Z M-5 9 C-5.33 9.99 -5.66 10.98 -6 12 C-5.01 12 -4.02 12 -3 12 C-3.33 11.01 -3.66 10.02 -4 9 C-4.33 9 -4.66 9 -5 9 Z " fill="#1D4F5C" transform="translate(39,40)"/>
<path d="M0 0 C0 0.33 0 0.66 0 1 C-0.59167969 1.08636719 -1.18335937 1.17273438 -1.79296875 1.26171875 C-7.2975583 2.240512 -10.55344351 3.30015024 -14 8 C-14.92345923 10.34267025 -15.46568619 12.52272687 -16 15 C-17.1171875 13.296875 -17.1171875 13.296875 -18 11 C-17.3203125 8.640625 -17.3203125 8.640625 -16.125 6.25 C-15.73570313 5.45078125 -15.34640625 4.6515625 -14.9453125 3.828125 C-14.63335937 3.22484375 -14.32140625 2.6215625 -14 2 C-12.68 2 -11.36 2 -10 2 C-10 1.34 -10 0.68 -10 0 C-6.42355152 -1.2380014 -3.66305234 -0.74926071 0 0 Z " fill="#1B5059" transform="translate(74,70)"/>
<path d="M0 0 C0.66 0 1.32 0 2 0 C4.76081837 6.3618858 5.63176001 12.09232563 6 19 C5.34 19 4.68 19 4 19 C3.86722656 18.39671875 3.73445312 17.7934375 3.59765625 17.171875 C3.42105469 16.37265625 3.24445313 15.5734375 3.0625 14.75 C2.80146484 13.56664063 2.80146484 13.56664063 2.53515625 12.359375 C2.19752527 10.87084133 1.84413627 9.38571353 1.46875 7.90625 C0.82650534 5.29445506 0.42238202 2.65497267 0 0 Z " fill="#1C4C59" transform="translate(194,61)"/>
<path d="M0 0 C2.57343171 1.07918104 4.66603411 2.44402274 7 4 C8.18681726 7.56045177 8.09689832 10.43808337 8.0625 14.1875 C8.05347656 15.45980469 8.04445312 16.73210937 8.03515625 18.04296875 C8.02355469 19.01878906 8.01195312 19.99460937 8 21 C6.02 21.99 6.02 21.99 4 23 C4.48146484 22.17822266 4.48146484 22.17822266 4.97265625 21.33984375 C6.84959137 17.06499912 6.67724286 12.5646169 6 8 C3.5659688 4.77655328 1.33795435 3.2253029 -2 1 C-1.34 0.67 -0.68 0.34 0 0 Z " fill="#194B54" transform="translate(157,70)"/>
<path d="M0 0 C4.30764815 1.56641751 8.06171464 3.68336156 12 6 C8.52674819 7.1577506 5.63932552 7.06866652 2 7 C0.5393715 4.35261084 0 3.10551666 0 0 Z " fill="#19525D" transform="translate(156,23)"/>
<path d="M0 0 C-5.63066465 3.44096173 -11.53328431 4.11056499 -18 5 C-18 4.34 -18 3.68 -18 3 C-15.75376301 2.30030318 -13.50283586 1.61564957 -11.25 0.9375 C-9.99703125 0.55464844 -8.7440625 0.17179687 -7.453125 -0.22265625 C-4.3261992 -0.92656828 -2.90533954 -1.16653785 0 0 Z " fill="#1B4B57" transform="translate(91,16)"/>
<path d="M0 0 C-0.33 1.65 -0.66 3.3 -1 5 C-1.94875 5.0825 -2.8975 5.165 -3.875 5.25 C-7.10461791 5.65074923 -7.10461791 5.65074923 -8.375 8.0625 C-8.58125 8.701875 -8.7875 9.34125 -9 10 C-9.33 8.68 -9.66 7.36 -10 6 C-8.71283353 4.99421411 -7.42011342 3.99553202 -6.125 3 C-5.40570313 2.443125 -4.68640625 1.88625 -3.9453125 1.3125 C-2 0 -2 0 0 0 Z " fill="#195161" transform="translate(52,31)"/>
<path d="M0 0 C0.78375 0.185625 1.5675 0.37125 2.375 0.5625 C4.97089775 1.25962266 4.97089775 1.25962266 7 0 C7.99 0.33 8.98 0.66 10 1 C10 1.66 10 2.32 10 3 C3.565 3.495 3.565 3.495 -3 4 C-2.01 2.68 -1.02 1.36 0 0 Z " fill="#154956" transform="translate(22,163)"/>
<path d="M0 0 C0 3 0 3 -2.3125 5.5 C-3.199375 6.325 -4.08625 7.15 -5 8 C-5.8971875 8.8971875 -5.8971875 8.8971875 -6.8125 9.8125 C-7.204375 10.204375 -7.59625 10.59625 -8 11 C-8 9.68 -8 8.36 -8 7 C-6.68 6.34 -5.36 5.68 -4 5 C-4 4.34 -4 3.68 -4 3 C-2 1.375 -2 1.375 0 0 Z " fill="#1A4854" transform="translate(30,150)"/>
<path d="M0 0 C1.15224028 0.92961422 2.29659176 1.8690125 3.4375 2.8125 C4.07558594 3.33457031 4.71367187 3.85664062 5.37109375 4.39453125 C7 6 7 6 8 9 C7.34 9 6.68 9 6 9 C6 8.34 6 7.68 6 7 C5.38125 6.87625 4.7625 6.7525 4.125 6.625 C2 6 2 6 0 4 C0 2.68 0 1.36 0 0 Z " fill="#1C4F5D" transform="translate(178,37)"/>
<path d="M0 0 C6.42857143 4.14285714 6.42857143 4.14285714 9 7 C6.69 7 4.38 7 2 7 C1.34 4.69 0.68 2.38 0 0 Z " fill="#1C505B" transform="translate(169,30)"/>
<path d="M0 0 C2 0 2 0 3.54296875 1.42578125 C4.08566406 2.04839844 4.62835938 2.67101562 5.1875 3.3125 C5.73792969 3.92738281 6.28835937 4.54226562 6.85546875 5.17578125 C7.42201172 6.07876953 7.42201172 6.07876953 8 7 C7.67 7.99 7.34 8.98 7 10 C6.401875 9.236875 5.80375 8.47375 5.1875 7.6875 C3.15995888 5.08664741 3.15995888 5.08664741 1.25 3.3125 C0 2 0 2 0 0 Z " fill="#184552" transform="translate(34,114)"/>
<path d="" fill="#FFFFFF" transform="translate(0,0)"/>
<path d="" fill="#FFFFFF" transform="translate(0,0)"/>
<path d="" fill="#FFFFFF" transform="translate(0,0)"/>
<path d="" fill="#FFFFFF" transform="translate(0,0)"/>
<path d="" fill="#FFFFFF" transform="translate(0,0)"/>
<path d="" fill="#FFFFFF" transform="translate(0,0)"/>
<path d="" fill="#FFFFFF" transform="translate(0,0)"/>
<path d="" fill="#FFFFFF" transform="translate(0,0)"/>
<path d="" fill="#FFFFFF" transform="translate(0,0)"/>
<path d="" fill="#FFFFFF" transform="translate(0,0)"/>
<path d="" fill="#FFFFFF" transform="translate(0,0)"/>
<path d="" fill="#FFFFFF" transform="translate(0,0)"/>
<path d="" fill="#FFFFFF" transform="translate(0,0)"/>
<path d="" fill="#FFFFFF" transform="translate(0,0)"/>
<path d="" fill="#FFFFFF" transform="translate(0,0)"/>
<path d="" fill="#FFFFFF" transform="translate(0,0)"/>
<path d="" fill="#FFFFFF" transform="translate(0,0)"/>
<path d="" fill="#FFFFFF" transform="translate(0,0)"/>
<path d="" fill="#FFFFFF" transform="translate(0,0)"/>
<path d="" fill="#FFFFFF" transform="translate(0,0)"/>
<path d="" fill="#FFFFFF" transform="translate(0,0)"/>
<path d="" fill="#FFFFFF" transform="translate(0,0)"/>
<path d="" fill="#FFFFFF" transform="translate(0,0)"/>
<path d="" fill="#FFFFFF" transform="translate(0,0)"/>
<path d="" fill="#FFFFFF" transform="translate(0,0)"/>
<path d="" fill="#FFFFFF" transform="translate(0,0)"/>
<path d="" fill="#FFFFFF" transform="translate(0,0)"/>
<path d="" fill="#FFFFFF" transform="translate(0,0)"/>
<path d="" fill="#FFFFFF" transform="translate(0,0)"/>
<path d="" fill="#FFFFFF" transform="translate(0,0)"/>
<path d="" fill="#FFFFFF" transform="translate(0,0)"/>
<path d="" fill="#FFFFFF" transform="translate(0,0)"/>
<path d="" fill="#FFFFFF" transform="translate(0,0)"/>
<path d="" fill="#FFFFFF" transform="translate(0,0)"/>
<path d="" fill="#FFFFFF" transform="translate(0,0)"/>
<path d="" fill="#FFFFFF" transform="translate(0,0)"/>
<path d="" fill="#FFFFFF" transform="translate(0,0)"/>
<path d="" fill="#FFFFFF" transform="translate(0,0)"/>
</svg>
